<svg xmlns="http://www.w3.org/2000/svg" width="16.391" height="21.568" viewBox="0 0 16.391 21.568">
  <g id="Group_271" data-name="Group 271" transform="translate(-1471.75 -47.25)">
    <path id="Path_240" data-name="Path 240" d="M45.4,45.506l.112,1.85A1.714,1.714,0,0,1,43.8,49.07H32.339a1.714,1.714,0,0,1-1.714-1.714l.858-14.14A1.714,1.714,0,0,1,33.2,31.5h9.747a1.714,1.714,0,0,1,1.714,1.714l.618,10.175" transform="translate(1441.875 18.998)" fill="none" stroke="#000" stroke-linecap="round" stroke-miterlimit="10" stroke-width="1.5"/>
    <g id="Group_270" data-name="Group 270">
      <path id="Path_241" data-name="Path 241" d="M43.375,24.132a3.429,3.429,0,0,1,5.41,2.8" transform="translate(1435.018 24.498)" fill="none" stroke="#000" stroke-linecap="round" stroke-miterlimit="10" stroke-width="1.5"/>
      <path id="Path_242" data-name="Path 242" d="M40,29.174a3.406,3.406,0,0,1,.478-1.746" transform="translate(1436.947 22.254)" fill="none" stroke="#000" stroke-linecap="round" stroke-miterlimit="10" stroke-width="1.5"/>
      <path id="Path_243" data-name="Path 243" d="M47.2,48.545c0,.747-2.1,2.6-2.224,2.7a.255.255,0,0,1-.353.006c-.113-.093-2.244-1.895-2.244-2.706a1.25,1.25,0,0,1,1.3-1.3,1.3,1.3,0,0,1,1.109.618,1.3,1.3,0,0,1,2.408.687Z" transform="translate(1435.589 10.932)" fill="none" stroke="#000" stroke-linecap="round" stroke-miterlimit="10" stroke-width="1.5"/>
    </g>
  </g>
</svg>
